<?xml version="1.0" standalone="no"?>
<!DOCTYPE svg PUBLIC "-//W3C//DTD SVG 20010904//EN"
 "http://www.w3.org/TR/2001/REC-SVG-20010904/DTD/svg10.dtd">
<svg version="1.0" xmlns="http://www.w3.org/2000/svg"
 width="606.000000pt" height="196.000000pt" viewBox="0 0 606.000000 196.000000"
 preserveAspectRatio="xMidYMid meet">

<g transform="translate(0.000000,196.000000) scale(0.100000,-0.100000)"
fill="#000000" stroke="none">
<path d="M2171 1315 c-127 -36 -201 -121 -201 -230 0 -119 83 -188 275 -230
119 -26 155 -47 155 -92 0 -81 -173 -94 -317 -23 -35 18 -66 30 -67 28 -16
-21 -55 -143 -48 -150 20 -20 146 -58 229 -69 159 -21 305 26 362 117 35 54
45 112 30 167 -22 83 -92 130 -259 172 -151 38 -182 60 -165 115 18 55 172 69
279 25 33 -13 63 -22 67 -19 14 8 51 136 42 145 -5 5 -35 18 -68 30 -80 28
-239 35 -314 14z"/>
<path d="M4245 1316 c-157 -39 -267 -158 -295 -318 -29 -167 59 -337 213 -408
126 -59 268 -59 393 -1 118 55 191 151 215 282 30 164 -57 336 -207 412 -91
46 -215 59 -319 33z m182 -161 c61 -18 126 -83 142 -141 26 -92 2 -193 -58
-247 -49 -45 -99 -60 -172 -55 -107 8 -184 87 -196 202 -14 135 81 246 218
255 8 1 38 -6 66 -14z"/>
<path d="M678 1312 l-188 -2 0 -375 0 -375 95 0 95 0 0 135 0 135 175 0 175 0
0 75 0 75 -175 0 -175 0 0 90 0 90 195 0 195 0 0 75 0 75 -89 0 c-49 0 -95 1
-103 3 -7 1 -97 1 -200 -1z"/>
<path d="M3703 1312 l-93 -3 0 -374 0 -375 100 0 100 0 0 374 c0 206 -3 376
-7 378 -5 2 -50 2 -100 0z"/>
<path d="M5444 1311 c-2 -2 -4 -101 -4 -219 l0 -215 -60 74 c-33 41 -111 138
-173 216 l-112 142 -87 0 -88 1 0 -375 0 -375 95 0 95 0 1 218 0 217 39 -45
c22 -25 102 -121 177 -215 l138 -170 83 -3 82 -3 -2 378 -3 378 -88 0 c-49 0
-90 -2 -93 -4z"/>
<path d="M1391 1293 c-5 -10 -54 -121 -109 -248 -55 -126 -125 -286 -156 -354
-31 -69 -56 -126 -56 -128 0 -2 45 -3 99 -3 l100 0 29 78 30 77 168 0 168 0
32 -75 31 -75 103 -3 c80 -2 101 0 97 10 -3 7 -62 139 -132 293 -69 154 -142
317 -162 363 l-35 82 -99 0 c-83 0 -100 -3 -108 -17z m163 -308 c25 -66 44
-121 42 -123 -2 -1 -48 -1 -104 0 l-100 3 51 128 c28 70 54 124 58 120 4 -5
28 -62 53 -128z"/>
<path d="M2720 935 l0 -375 100 0 100 0 0 150 0 150 155 0 155 0 0 -150 0
-150 100 0 100 0 0 375 0 375 -100 0 -100 0 0 -145 0 -145 -155 0 -155 0 0
145 0 145 -100 0 -100 0 0 -375z"/>
</g>
</svg>
